<?xml version="1.0" standalone="no"?>
<!DOCTYPE svg PUBLIC "-//W3C//DTD SVG 20010904//EN"
 "http://www.w3.org/TR/2001/REC-SVG-20010904/DTD/svg10.dtd">
<svg version="1.0" xmlns="http://www.w3.org/2000/svg"
 width="700.000000pt" height="700.000000pt" viewBox="0 0 700.000000 700.000000"
 preserveAspectRatio="xMidYMid meet">
<metadata>
Created by potrace 1.11, written by Peter Selinger 2001-2013
</metadata>
<g transform="translate(0.000000,700.000000) scale(0.100000,-0.100000)"
fill="#000000" stroke="none">
<path d="M927 6255 c-89 -33 -166 -117 -187 -205 -7 -32 -10 -785 -8 -2575 l3
-2530 23 -46 c29 -59 82 -112 141 -141 l46 -23 2555 0 2555 0 45 22 c57 27
113 83 142 142 l23 46 0 2555 0 2555 -22 45 c-27 57 -86 116 -143 143 l-45 22
-2545 2 c-2150 1 -2551 -1 -2583 -12z"/>
</g>
</svg>
