<svg version="1.1" id="Capa_1" xmlns="http://www.w3.org/2000/svg" xmlns:xlink="http://www.w3.org/1999/xlink" x="0px" y="0px"
	 viewBox="-118 210.5 374.7 372.3" style="enable-background:new -118 210.5 374.7 372.3;" xml:space="preserve">
<g>
	<path d="M-87.2,422.3v-24.5c0-1.8-0.3-3.7-1.7-4.2l-18.1-10.2c-6.4-3.6-10.4-9.5-11-16.3c-0.6-6.8,2.3-13.3,8-18L52.8,216.3
		c4.6-3.7,10.4-5.8,16.6-5.8s12,2,16.6,5.8l162.7,132.8c5.7,4.6,8.6,11.2,8,18s-4.6,12.7-11,16.3l-18.1,10.2
		c-1.3,0.7-1.7,1.7-1.7,3.7v161.5c0,13.2-10.8,24-24,24H-63.2c-13.2,0-24-10.8-24-24V422.3 M-59.2,421.3c0,35.1,0,97.6,0,123.7
		c0,9.5,7.7,9.8,7.7,9.8h235.7c0,0,13.7,1.8,13.7-13.5c0-36.2,0-145,0-145c0-16.5,6.7-21.9,15.9-27.1c0,0,2.5-1.2,3.2-1.8
		c5.6-4.3-0.4-8.3-0.4-8.3s-99.3-80.3-135.1-110.3c-8.6-7.2-13.3-9.2-24.3,0C21.1,278.6-78.1,359.3-78.1,359.3s-5.6,4.1-0.6,7.8
		c0.8,0.6,3.6,2,3.6,2c9.2,5.2,15.9,10.2,15.9,27.1C-59.2,396.3-59.2,406.3-59.2,421.3"/>
</g>
<path d="M-42.2,247.3l0.5,10.4c0.3,6.1,0.6,13,1.8,20.5l1.5,11.4l2.6,13c1,6.1,2.8,12.3,4.5,18.3c0.8,2.7,1.6,5.5,2.3,8.3
	c0.1,0.3,0.2,0.6,0.3,0.9c0.8,2.2,1.6,4.5,2.4,6.8c2.4,6.7,4.8,13.6,8,20.2c2.9,7.1,6.7,14,10.4,20.6l2.7,4.9
	c0.1,0.2,0.2,0.4,0.4,0.6l3,4.5c4.1,6.3,8.4,12.7,13.3,18.3c4,5.3,8.6,9.9,13.1,14.4c1.5,1.5,3,2.9,4.4,4.4c0.2,0.2,0.4,0.4,0.6,0.5
	c1.9,1.5,3.7,3,5.5,4.5c4.2,3.5,8.6,7.1,13.1,9.7l10.9,6.6l6.6,3.2c5.6,3,11.5,4.7,16.2,6.1l10.2,2.7V497c0,3.2,1.4,6.1,3.4,7.3
	c0.7,0.4,1.4,0.6,2.1,0.6c1.4,0,2.9-0.8,3.9-2.3l47.8-68.2c1-1.5,1.6-3.5,1.6-5.6c0-2.1-0.6-4.1-1.6-5.6l-47.8-68.2
	c-1.6-2.3-4-2.9-6.1-1.7c-2.1,1.2-3.4,4.1-3.4,7.3v37l-0.8,0l-5.9-0.6c-3.1-0.3-6.4-0.5-10-1.7l-7.2-1.8l-7.3-2.9
	c-3.4-1.1-6.6-2.9-10-4.8c-1.8-1-3.6-2.1-5.5-3c-1.5-1.1-3-2.2-4.6-3.3c-3.7-2.6-7.5-5.3-10.9-8.6c-4.3-3.6-8-7.6-11.8-11.9
	c-1.2-1.3-2.3-2.6-3.5-3.9c-1.1-1.4-2.1-2.9-3.2-4.3c-3.6-4.8-7.1-9.4-10-14.5c-3.3-5-5.8-9.9-8.4-15.2c-1-2-2-4-3-6
	c-1-2.5-2-5-3-7.5c-2-4.8-3.9-9.4-5.2-14l-3.5-11.1l-2.5-10.4c-1.6-6.2-2.5-11.8-3.4-17.3l-2.1-15.8l-1.2-13.5
	c-0.4-4.1-3-7.2-5.8-6.9c-2.9,0.2-5.2,3.6-5.3,7.7L-42.2,247.3z"/>
</svg>
